<?xml version="1.0" encoding="utf-8"?>
<!-- Generator: Adobe Illustrator 26.5.0, SVG Export Plug-In . SVG Version: 6.00 Build 0)  -->
<svg version="1.1" id="Layer_1" xmlns="http://www.w3.org/2000/svg" xmlns:xlink="http://www.w3.org/1999/xlink" x="0px" y="0px"
	 viewBox="0 0 500 500" style="enable-background:new 0 0 500 500;" xml:space="preserve">
<style type="text/css">
	.st0{fill:#A99BEC;}
	.st1{fill:#9B92E8;}
</style>
<path class="st0" d="M344.1,19.2c0,1.4,0,3,0,4.3c0.7,36.9,7.2,65.2,24,98.4c6.5,12.7,12.2,25.5,16.9,38.9c0.3,0.8,0.6,1.6,0.9,2.4
	c11.2,31.4,14.9,65.8,8.1,98.6c-0.2,1.1-0.2,1.1-0.4,2.1c-1.3,6.1-2.8,12.1-5.3,17.9c-3.5,8.1-4.7,13.2-2.2,21.9
	c5.8,22.9-1.7,49.1-13.4,68.9c-4.5,7.3-9.9,13.9-15.8,20.2c-0.8,0.9-1.6,1.8-2.5,2.7c-23.6,24.5-58.3,39.7-92.3,40.6
	c-3.3,0.1-6.6,0.1-9.9,0.1c-2.5,0-5,0-7.6,0c-14.5,0.1-28.3-1.7-42.1-6.4c-0.9-0.3-1.7-0.6-2.6-0.9c-18.3-6.5-34.6-16.8-48.8-30
	c-2-1.9-4.1-3.6-6.2-5.3C114.9,367,99.5,325.7,94,286.8c-0.2-1.3-0.4-2.6-0.6-3.9c-4.5-37.1,6-76.6,23.6-109.1c0.3-0.7,0.7-1.3,1-2
	c5.5-10.4,11.8-19.8,19-29c0.8-1,1.5-1.9,2.3-2.9c5.9-7.4,12.3-14.2,18.7-21.1c0.6-0.7,1.3-1.4,1.9-2.1c4.1-4.2,8.6-7.9,13.1-11.6
	c2.9-2.3,5.7-4.8,8.6-7.2C219.6,66.6,336.9,18.6,344.1,19.2z M298.6,68.5c-0.6,0.2-1.2,0.5-1.9,0.7C275,77.9,254,87.7,234,99.8
	c-0.7,0.4-1.3,0.8-2,1.2c-17.7,10.9-33.9,23.5-49,37.8c-0.5,0.5-1,0.9-1.5,1.4c-10.9,10.4-20.2,22-28.5,34.6
	c-0.6,0.9-1.2,1.9-1.9,2.8c-23.6,36.8-32.2,80.4-22.9,123.2c8.3,35.8,29.2,67.9,60.3,87.8c27.8,17.1,60.9,20.4,92.5,13.2
	c26.5-6.9,50.7-21.3,65-45.3c4.3-7.7,7.8-16,9-24.7c-0.4,0.3-0.9,0.7-1.3,1c-14.3,11.1-30.4,19.5-47.7,25c-1.1,0.4-2.3,0.8-3.4,1.2
	c-18.3,5.6-40.5,5.2-58.6-1.2c-1.1-0.4-1.1-0.4-2.1-0.7c-27.4-9.9-50.6-29.3-63.2-55.7c-1.3-2.8-2.5-5.7-3.7-8.6
	c-0.3-0.6-0.5-1.3-0.8-1.9c-9.2-22.9-7.8-48.4,1-71.1c18-40.3,55.1-66.6,93.8-84.9c0.8-0.4,1.7-0.8,2.5-1.2c5.5-2.6,11-5.2,16.5-7.8
	c0.2,1,0.4,1.8,0.8,2.9c1,3.3,1.6,5.4,3,8.5c12.1,31.5,9.8,65-2,95.6c-0.4,1-0.4,1-0.8,1.9c1.9,0.1,1.9,0.1,3.8,0.3
	c24.9,2.1,48.7,8.1,68.2,24.7c0.6,0.3,0.5,0.4,1.5,0.8c0.6-2,1.1-3.7,1.4-6.1c0.2-1.4,0.2-1.4,0.4-2.7c0.1-1,0.3-2,0.4-3
	c0.1-1,0.3-2,0.4-3c4.2-34.4-5-66.7-19-97.9c-0.4-0.8-0.7-1.6-1.1-2.5c-3.1-6.8-6.3-13.5-9.9-20c-10.6-19.2-17.1-40-21-61.5
	C308.6,63.8,303.6,66.6,298.6,68.5z M228.3,196.4c-8.4,7.7-22.3,27.4-27.2,43c-4.9,19.1-0.9,37.6,8.7,54.6
	c3.5,5.5,7.7,10.2,12.2,14.9c0.7,0.7,1.4,1.4,2.1,2.1c15.9,15.1,36.1,20.4,57.6,20.2c6.9-0.2,12.8-1.8,19.3-4.3
	c1.7-0.6,1.7-0.6,3.4-1.2c10.9-3.9,19.7-9.6,28.6-16.8c1.5-1.1,1.5-1.1,3-2.2c4.7-3.9,8.3-9,12-13.8c-5.1-11.1-15.9-16.9-26.9-21.1
	c-12.3-4.3-24.1-5.2-37-5.2c-1.2,0-1.2,0-2.4,0c-16.6,0-33.4,0.9-49.7,4.3c1.4-2.3,2.9-4.6,4.3-6.9c0.7-1.1,0.7-1.1,1.4-2.2
	c2.3-3.8,4.7-7.5,7.2-11.2c15.1-22.8,28-61.5,25-77c-0.3-0.9-0.8-2.2-1.8-3.8c-12.3,6.4-22.8,11.9-33.4,20.9"/>
<path class="st1" d="M0,0"/>
</svg>
