<svg xmlns="http://www.w3.org/2000/svg">
    <symbol id="add" viewBox="0 0 24 24">
        <path d="M0 0h24v24H0V0z" fill="none"/>
        <path d="M18 13h-5v5c0 .55-.45 1-1 1s-1-.45-1-1v-5H6c-.55 0-1-.45-1-1s.45-1 1-1h5V6c0-.55.45-1 1-1s1 .45 1 1v5h5c.55 0 1 .45 1 1s-.45 1-1 1z"/>
    </symbol>

    <symbol id="subject" viewBox="0 0 24 24">
        <path d="M0 0h24v24H0V0z" fill="none"/>
        <path d="M13 17H5c-.55 0-1 .45-1 1s.45 1 1 1h8c.55 0 1-.45 1-1s-.45-1-1-1zm6-8H5c-.55 0-1 .45-1 1s.45 1 1 1h14c.55 0 1-.45 1-1s-.45-1-1-1zM5 15h14c.55 0 1-.45 1-1s-.45-1-1-1H5c-.55 0-1 .45-1 1s.45 1 1 1zM4 6c0 .55.45 1 1 1h14c.55 0 1-.45 1-1s-.45-1-1-1H5c-.55 0-1 .45-1 1z"/>
    </symbol>

    <symbol id="calendar" viewBox="0 0 24 24">
        <path d="M17,2c-0.55,0-1,0.45-1,1v1H8V3c0-0.55-0.45-1-1-1S6,2.45,6,3v1H5C3.89,4,3.01,4.9,3.01,6L3,20c0,1.1,0.89,2,2,2h14 c1.1,0,2-0.9,2-2V6c0-1.1-0.9-2-2-2h-1V3C18,2.45,17.55,2,17,2z M19,20H5V10h14V20z M11,13c0-0.55,0.45-1,1-1s1,0.45,1,1 s-0.45,1-1,1S11,13.55,11,13z M7,13c0-0.55,0.45-1,1-1s1,0.45,1,1s-0.45,1-1,1S7,13.55,7,13z M15,13c0-0.55,0.45-1,1-1s1,0.45,1,1 s-0.45,1-1,1S15,13.55,15,13z M11,17c0-0.55,0.45-1,1-1s1,0.45,1,1s-0.45,1-1,1S11,17.55,11,17z M7,17c0-0.55,0.45-1,1-1 s1,0.45,1,1s-0.45,1-1,1S7,17.55,7,17z M15,17c0-0.55,0.45-1,1-1s1,0.45,1,1s-0.45,1-1,1S15,17.55,15,17z"/>
    </symbol>

    <symbol id="comment" viewBox="0 0 24 24">
        <path opacity="0.5" d="M20 4v12H5.17L4 17.17V4h16m0-2H4c-1.1 0-2 .9-2 2v15.59c0 .89 1.08 1.34 1.71.71L6 18h14c1.1 0 2-.9 2-2V4c0-1.1-.9-2-2-2z"/>
    </symbol>

    <symbol id="rename" viewBox="0 0 24 24">
        <path d="M15,16l-4,4h8c1.1,0,2-0.9,2-2v0c0-1.1-0.9-2-2-2H15z"/>
        <path d="M12.06,7.19l-8.77,8.77C3.11,16.14,3,16.4,3,16.66V19c0,0.55,0.45,1,1,1h2.34c0.27,0,0.52-0.11,0.71-0.29l8.77-8.77 L12.06,7.19z"/>
        <path d="M18.71,8.04c0.39-0.39,0.39-1.02,0-1.41l-2.34-2.34c-0.39-0.39-1.02-0.39-1.41,0l-1.83,1.83l3.75,3.75L18.71,8.04z"/>
    </symbol>

    <symbol id="reply" viewBox="0 0 24 24">
        <path d="M24 24H0V0h24v24z" fill="none" opacity=".87"/>
        <path d="M18.29 15.71l-4.58 4.58c-.39.39-1.03.39-1.42 0-.39-.39-.39-1.03 0-1.42L15.17 16H5c-.55 0-1-.45-1-1V5c0-.55.45-1 1-1s1 .45 1 1v9h9.17l-2.88-2.87c-.39-.39-.39-1.03 0-1.42.39-.39 1.03-.39 1.42 0l4.58 4.58c.39.39.39 1.03 0 1.42z"/>
    </symbol>

    <symbol id="tag" viewBox="0 0 24 24">
        <path d="M0,0h24v24H0V0z" fill="none"/>
        <path d="M21.41,11.41l-8.83-8.83C12.21,2.21,11.7,2,11.17,2H4C2.9,2,2,2.9,2,4v7.17c0,0.53,0.21,1.04,0.59,1.41l8.83,8.83 c0.78,0.78,2.05,0.78,2.83,0l7.17-7.17C22.2,13.46,22.2,12.2,21.41,11.41z M12.83,20L4,11.17V4h7.17L20,12.83L12.83,20z"/>
        <circle cx="6.5" cy="6.5" r="1.5"/>
    </symbol>

    <symbol id="supervised-user" viewBox="0 0 24 24">
        <path d="M0 0h24v24H0V0z" fill="none"/>
        <path d="M12 2C6.48 2 2 6.48 2 12s4.48 10 10 10 10-4.48 10-10S17.52 2 12 2zm3.61 6.34c1.07 0 1.93.86 1.93 1.93s-.86 1.93-1.93 1.93-1.93-.86-1.93-1.93c-.01-1.07.86-1.93 1.93-1.93zm-6-1.58c1.3 0 2.36 1.06 2.36 2.36s-1.06 2.36-2.36 2.36-2.36-1.06-2.36-2.36c0-1.31 1.05-2.36 2.36-2.36zm0 9.13v3.75c-2.4-.75-4.3-2.6-5.14-4.96 1.05-1.12 3.67-1.69 5.14-1.69.53 0 1.2.08 1.9.22-1.64.87-1.9 2.02-1.9 2.68zM12 20c-.27 0-.53-.01-.79-.04v-4.07c0-1.42 2.94-2.13 4.4-2.13 1.07 0 2.92.39 3.84 1.15C18.28 17.88 15.39 20 12 20z"/>
    </symbol>

    <symbol id="bar-chart" viewBox="0 0 24 24">
        <path d="M6,20L6,20c1.1,0,2-0.9,2-2v-7c0-1.1-0.9-2-2-2h0c-1.1,0-2,0.9-2,2v7C4,19.1,4.9,20,6,20z"/>
        <path d="M16,15v3c0,1.1,0.9,2,2,2h0c1.1,0,2-0.9,2-2v-3c0-1.1-0.9-2-2-2h0C16.9,13,16,13.9,16,15z"/>
        <path d="M12,20L12,20c1.1,0,2-0.9,2-2V6c0-1.1-0.9-2-2-2h0c-1.1,0-2,0.9-2,2v12C10,19.1,10.9,20,12,20z"/>
    </symbol>

    <symbol id="post-add" viewBox="0 0 24 24">
        <path d="M18,12c-0.55,0-1,0.45-1,1v5.22c0,0.55-0.45,1-1,1H6c-0.55,0-1-0.45-1-1V8c0-0.55,0.45-1,1-1h5c0.55,0,1-0.45,1-1 c0-0.55-0.45-1-1-1H5C3.9,5,3,5.9,3,7v12c0,1.1,0.9,2,2,2h12c1.1,0,2-0.9,2-2v-6C19,12.45,18.55,12,18,12z"/>
        <path d="M21.02,5H19V2.98C19,2.44,18.56,2,18.02,2h-0.03C17.44,2,17,2.44,17,2.98V5h-2.01C14.45,5,14.01,5.44,14,5.98 c0,0.01,0,0.02,0,0.03C14,6.56,14.44,7,14.99,7H17v2.01c0,0.54,0.44,0.99,0.99,0.98c0.01,0,0.02,0,0.03,0 c0.54,0,0.98-0.44,0.98-0.98V7h2.02C21.56,7,22,6.56,22,6.02V5.98C22,5.44,21.56,5,21.02,5z"/>
        <path d="M14,9H8c-0.55,0-1,0.45-1,1c0,0.55,0.45,1,1,1h6c0.55,0,1-0.45,1-1C15,9.45,14.55,9,14,9z"/>
        <path d="M14,12H8c-0.55,0-1,0.45-1,1c0,0.55,0.45,1,1,1h6c0.55,0,1-0.45,1-1C15,12.45,14.55,12,14,12z"/>
        <path d="M14,15H8c-0.55,0-1,0.45-1,1c0,0.55,0.45,1,1,1h6c0.55,0,1-0.45,1-1C15,15.45,14.55,15,14,15z"/>
    </symbol>

    <symbol id="expand-up" viewBox="0 0 24 24">
        <path d="M0 0h24v24H0V0z" fill="none"/>
        <path d="M11.29 8.71L6.7 13.3c-.39.39-.39 1.02 0 1.41.39.39 1.02.39 1.41 0L12 10.83l3.88 3.88c.39.39 1.02.39 1.41 0 .39-.39.39-1.02 0-1.41L12.7 8.71c-.38-.39-1.02-.39-1.41 0z"/>
    </symbol>

    <symbol id="expand-down" viewBox="0 0 24 24">
        <path d="M24 24H0V0h24v24z" fill="none" opacity=".87"/>
        <path d="M15.88 9.29L12 13.17 8.12 9.29c-.39-.39-1.02-.39-1.41 0-.39.39-.39 1.02 0 1.41l4.59 4.59c.39.39 1.02.39 1.41 0l4.59-4.59c.39-.39.39-1.02 0-1.41-.39-.38-1.03-.39-1.42 0z"/>
    </symbol>

    <symbol id="group-add" viewBox="0 0 24 24">
        <path d="M22,9V8c0-0.55-0.45-1-1-1h0c-0.55,0-1,0.45-1,1v1h-1c-0.55,0-1,0.45-1,1v0c0,0.55,0.45,1,1,1h1v1c0,0.55,0.45,1,1,1h0 c0.55,0,1-0.45,1-1v-1h1c0.55,0,1-0.45,1-1v0c0-0.55-0.45-1-1-1H22z"/>
        <path d="M8,12c2.21,0,4-1.79,4-4s-1.79-4-4-4S4,5.79,4,8S5.79,12,8,12z"/>
        <path d="M8,13c-2.67,0-8,1.34-8,4v3h16v-3C16,14.34,10.67,13,8,13z"/>
        <path d="M12.51,4.05C13.43,5.11,14,6.49,14,8s-0.57,2.89-1.49,3.95C14.47,11.7,16,10.04,16,8S14.47,4.3,12.51,4.05z"/>
        <path d="M16.53,13.83C17.42,14.66,18,15.7,18,17v3h2v-3C20,15.55,18.41,14.49,16.53,13.83z"/>
    </symbol>

    <symbol id="more" viewBox="0 0 24 24">
        <path d="M0 0h24v24H0V0z" fill="none"/>
        <path d="M6 10c-1.1 0-2 .9-2 2s.9 2 2 2 2-.9 2-2-.9-2-2-2zm12 0c-1.1 0-2 .9-2 2s.9 2 2 2 2-.9 2-2-.9-2-2-2zm-6 0c-1.1 0-2 .9-2 2s.9 2 2 2 2-.9 2-2-.9-2-2-2z"/>
    </symbol>

    <symbol id="close" viewBox="0 0 24 24">
        <path d="M0 0h24v24H0V0z" fill="none"/>
        <path d="M18.3 5.71c-.39-.39-1.02-.39-1.41 0L12 10.59 7.11 5.7c-.39-.39-1.02-.39-1.41 0-.39.39-.39 1.02 0 1.41L10.59 12 5.7 16.89c-.39.39-.39 1.02 0 1.41.39.39 1.02.39 1.41 0L12 13.41l4.89 4.89c.39.39 1.02.39 1.41 0 .39-.39.39-1.02 0-1.41L13.41 12l4.89-4.89c.38-.38.38-1.02 0-1.4z"/>
    </symbol>

    <symbol id="cancel" viewBox="0 0 24 24">
        <path d="M0 0h24v24H0V0z" fill="none" opacity=".87"/>
        <path d="M12 2C6.47 2 2 6.47 2 12s4.47 10 10 10 10-4.47 10-10S17.53 2 12 2zm4.3 14.3c-.39.39-1.02.39-1.41 0L12 13.41 9.11 16.3c-.39.39-1.02.39-1.41 0-.39-.39-.39-1.02 0-1.41L10.59 12 7.7 9.11c-.39-.39-.39-1.02 0-1.41.39-.39 1.02-.39 1.41 0L12 10.59l2.89-2.89c.39-.39 1.02-.39 1.41 0 .39.39.39 1.02 0 1.41L13.41 12l2.89 2.89c.38.38.38 1.02 0 1.41z"/>
    </symbol>

    <symbol id="link" viewBox="0 0 24 24">
        <path d="M17,7h-3c-0.55,0-1,0.45-1,1s0.45,1,1,1h3c1.65,0,3,1.35,3,3s-1.35,3-3,3h-3c-0.55,0-1,0.45-1,1c0,0.55,0.45,1,1,1h3 c2.76,0,5-2.24,5-5S19.76,7,17,7z M8,12c0,0.55,0.45,1,1,1h6c0.55,0,1-0.45,1-1s-0.45-1-1-1H9C8.45,11,8,11.45,8,12z M10,15H7 c-1.65,0-3-1.35-3-3s1.35-3,3-3h3c0.55,0,1-0.45,1-1s-0.45-1-1-1H7c-2.76,0-5,2.24-5,5s2.24,5,5,5h3c0.55,0,1-0.45,1-1 C11,15.45,10.55,15,10,15z"/>
    </symbol>

    <symbol id="checkbox-checked" viewBox="0 0 24 24">
        <path d="M0 0h24v24H0V0z" fill="none"/>
        <path d="M19 3H5c-1.1 0-2 .9-2 2v14c0 1.1.9 2 2 2h14c1.1 0 2-.9 2-2V5c0-1.1-.9-2-2-2zm-8.29 13.29c-.39.39-1.02.39-1.41 0L5.71 12.7c-.39-.39-.39-1.02 0-1.41.39-.39 1.02-.39 1.41 0L10 14.17l6.88-6.88c.39-.39 1.02-.39 1.41 0 .39.39.39 1.02 0 1.41l-7.58 7.59z"/>
    </symbol>

    <symbol id="checkbox" viewBox="0 0 24 24">
        <path d="M0 0h24v24H0V0z" fill="none"/>
        <path d="M18 19H6c-.55 0-1-.45-1-1V6c0-.55.45-1 1-1h12c.55 0 1 .45 1 1v12c0 .55-.45 1-1 1zm1-16H5c-1.1 0-2 .9-2 2v14c0 1.1.9 2 2 2h14c1.1 0 2-.9 2-2V5c0-1.1-.9-2-2-2z"/>
    </symbol>

    <symbol id="add-checkbox" viewBox="0 0 24 24">
        <path d="M20,2H8C6.9,2,6,2.9,6,4v12c0,1.1,0.9,2,2,2h12c1.1,0,2-0.9,2-2V4C22,2.9,21.1,2,20,2z M11.76,13.28L9.69,11.2 c-0.38-0.39-0.38-1.01,0-1.4l0,0c0.39-0.39,1.02-0.39,1.41,0l1.36,1.37l4.42-4.46c0.39-0.39,1.02-0.39,1.41,0l0,0 c0.38,0.39,0.38,1.01,0,1.4l-5.13,5.17C12.79,13.68,12.15,13.68,11.76,13.28z M3,6L3,6C2.45,6,2,6.45,2,7v13c0,1.1,0.9,2,2,2h13 c0.55,0,1-0.45,1-1v0c0-0.55-0.45-1-1-1H5c-0.55,0-1-0.45-1-1V7C4,6.45,3.55,6,3,6z"/>
        <path d="M0,0h24v24H0V0z" fill="none"/>
    </symbol>

    <symbol id="circle-unchecked" viewBox="0 0 24 24">
        <path stroke="none" d="M0 0h24v24H0V0z" />
        <path stroke="#000000" fill-opacity=".5" d="M12 2C6.48 2 2 6.48 2 12s4.48 10 10 10 10-4.48 10-10S17.52 2 12 2zm0 18c-4.42 0-8-3.58-8-8s3.58-8 8-8 8 3.58 8 8-3.58 8-8 8z"/>
    </symbol>

    <symbol id="circle-checked" viewBox="0 0 24 24">
        <path fill="#000000" opacity=".5" d="M21.29,5.89l-10,10c-0.39,0.39-1.02,0.39-1.41,0l-2.83-2.83c-0.39-0.39-0.39-1.02,0-1.41l0,0c0.39-0.39,1.02-0.39,1.41,0 l2.12,2.12l9.29-9.29c0.39-0.39,1.02-0.39,1.41,0l0,0C21.68,4.87,21.68,5.5,21.29,5.89z M15.77,2.74c-1.69-0.69-3.61-0.93-5.61-0.57 C6.09,2.9,2.84,6.18,2.15,10.25C1.01,17,6.63,22.78,13.34,21.91c3.96-0.51,7.28-3.46,8.32-7.31c0.4-1.47,0.44-2.89,0.21-4.22 c-0.13-0.8-1.12-1.11-1.7-0.54v0c-0.23,0.23-0.33,0.57-0.27,0.89c0.22,1.33,0.12,2.75-0.52,4.26c-1.16,2.71-3.68,4.7-6.61,4.97 c-5.1,0.47-9.33-3.85-8.7-8.98c0.43-3.54,3.28-6.42,6.81-6.91c1.73-0.24,3.37,0.09,4.77,0.81c0.39,0.2,0.86,0.13,1.17-0.18l0,0 c0.48-0.48,0.36-1.29-0.24-1.6C16.31,2.98,16.04,2.85,15.77,2.74z"/>
    </symbol>

    <symbol id="circle-checked-filled" viewBox="0 0 24 24">
        <path fill="#00000050" d="M0 0h24v24H0V0z" />
        <path fill="#00000050" d="M12 2C6.48 2 2 6.48 2 12s4.48 10 10 10 10-4.48 10-10S17.52 2 12 2zM9.29 16.29 5.7 12.7c-.39-.39-.39-1.02 0-1.41.39-.39 1.02-.39 1.41 0L10 14.17l6.88-6.88c.39-.39 1.02-.39 1.41 0 .39.39.39 1.02 0 1.41l-7.59 7.59c-.38.39-1.02.39-1.41 0z"/>
    </symbol>

    <symbol id="edit" viewBox="0 0 24 24">
        <path fill="#000000" opacity=".5" d="M3,17.46l0,3.04C3,20.78,3.22,21,3.5,21h3.04c0.13,0,0.26-0.05,0.35-0.15L17.81,9.94l-3.75-3.75L3.15,17.1 C3.05,17.2,3,17.32,3,17.46z"/>
        <path fill="#000000" opacity=".5" d="M20.71,5.63l-2.34-2.34c-0.39-0.39-1.02-0.39-1.41,0l-1.83,1.83l3.75,3.75l1.83-1.83C21.1,6.65,21.1,6.02,20.71,5.63z"/>
    </symbol>

    <symbol id="p0" viewBox="0 0 16 16">
        <path fill="none" stroke="#EC6240" stroke-linecap="round" stroke-linejoin="round" stroke-width="2" d="M2.667 6.667l5.333-2 5.333 2"/>
        <path fill="none" stroke="#FF5C00" stroke-linecap="round" stroke-linejoin="round" stroke-width="2" d="M2.667 11.334l5.333-2 5.333 2"/>
    </symbol>

    <symbol id="p1" viewBox="0 0 16 16">
        <path fill="none" stroke="#EC6240" stroke-linecap="round" stroke-linejoin="round" stroke-width="2" d="M2.667 8.666l5.333-2 5.333 2"/>
    </symbol>

    <symbol id="p2" viewBox="0 0 16 16">
        <path fill="none" stroke="#F3AF3D" stroke-linecap="round" stroke-linejoin="round" stroke-width="2" d="M3 6h9.333M3 9.667h9.333"/>
    </symbol>

    <symbol id="p3" viewBox="0 0 16 16">
        <path fill="none" stroke="#2A63F6" stroke-linecap="round" stroke-linejoin="round" stroke-width="2" d="M2.667 7.333l5.333 2 5.333-2"/>
    </symbol>
    
    <symbol id="p4" viewBox="0 0 16 16">
        <path fill="none" stroke="#4382F7" stroke-linecap="round" stroke-linejoin="round" stroke-width="2" d="M2.667 4.667l5.333 2 5.333-2"/>
        <path fill="none" stroke="#2A63F6" stroke-linecap="round" stroke-linejoin="round" stroke-width="2" d="M2.667 9.334l5.333 2 5.333-2"/>
    </symbol>

</svg>